<svg width="150" height="150" viewBox="0 0 150 150" fill="none" xmlns="http://www.w3.org/2000/svg">
<g clip-path="url(#clip0_98_346)">
<mask id="path-1-inside-1_98_346" fill="white">
<path d="M4.58063 49.1908C-2.10027 67.4194 -1.45229 87.5285 6.38831 105.289C14.2289 123.05 28.6512 137.078 46.6221 144.424C64.5931 151.77 84.7124 151.861 102.749 144.678C120.786 137.495 135.334 123.597 143.335 105.908C151.336 88.2193 152.166 68.1169 145.65 49.8286C139.134 31.5403 125.78 16.4913 108.397 7.84618C91.0138 -0.798913 70.9554 -2.36639 52.4402 3.47339C33.925 9.31318 18.3956 22.1052 9.11799 39.1592L9.47806 39.3551C18.705 22.3943 34.1495 9.67218 52.5635 3.86432C70.9775 -1.94355 90.9263 -0.384642 108.215 8.2132C125.503 16.8111 138.784 31.7779 145.264 49.9662C151.744 68.1545 150.919 88.147 142.962 105.739C135.004 123.332 120.535 137.153 102.597 144.297C84.6593 151.441 64.6499 151.35 46.7772 144.045C28.9045 136.739 14.561 122.787 6.7633 105.124C-1.03445 87.4601 -1.67889 67.4609 4.9655 49.3319L4.58063 49.1908Z"/>
</mask>
<path d="M4.58063 49.1908C-2.10027 67.4194 -1.45229 87.5285 6.38831 105.289C14.2289 123.05 28.6512 137.078 46.6221 144.424C64.5931 151.77 84.7124 151.861 102.749 144.678C120.786 137.495 135.334 123.597 143.335 105.908C151.336 88.2193 152.166 68.1169 145.65 49.8286C139.134 31.5403 125.78 16.4913 108.397 7.84618C91.0138 -0.798913 70.9554 -2.36639 52.4402 3.47339C33.925 9.31318 18.3956 22.1052 9.11799 39.1592L9.47806 39.3551C18.705 22.3943 34.1495 9.67218 52.5635 3.86432C70.9775 -1.94355 90.9263 -0.384642 108.215 8.2132C125.503 16.8111 138.784 31.7779 145.264 49.9662C151.744 68.1545 150.919 88.147 142.962 105.739C135.004 123.332 120.535 137.153 102.597 144.297C84.6593 151.441 64.6499 151.35 46.7772 144.045C28.9045 136.739 14.561 122.787 6.7633 105.124C-1.03445 87.4601 -1.67889 67.4609 4.9655 49.3319L4.58063 49.1908Z" stroke="#333333" stroke-opacity="0.8" stroke-width="1.6129" mask="url(#path-1-inside-1_98_346)"/>
</g>
<defs>
<clipPath id="clip0_98_346">
<rect width="150" height="150" fill="white"/>
</clipPath>
</defs>
</svg>
