<svg width="73" height="73" viewBox="0 0 73 73" fill="none" xmlns="http://www.w3.org/2000/svg">
<path d="M58.0452 20.4395C50.4561 20.4395 42.1378 24.6676 36.5 31.0807C30.8608 24.6676 22.5431 20.4395 14.9548 20.4395C7.72486 20.4395 0 24.6581 0 36.4995C0 48.3408 7.72486 52.5587 14.9548 52.5595C22.5446 52.5595 30.8608 48.332 36.5 41.9204C42.1378 48.332 50.4554 52.5595 58.0438 52.5595C65.2751 52.5595 73 48.3408 73 36.4995C73 24.6581 65.2751 20.4395 58.0452 20.4395ZM14.9548 46.1362C9.43598 46.1362 6.6357 42.8943 6.6357 36.4995C6.6357 30.1068 9.43598 26.8635 14.9548 26.8635C21.0583 26.8635 28.1459 30.8252 32.4974 36.4995C28.1466 42.1737 21.0605 46.1362 14.9548 46.1362ZM58.0438 46.1362C51.9402 46.1362 44.8527 42.1737 40.5026 36.4995C44.8527 30.8252 51.9417 26.8635 58.0452 26.8635C63.5655 26.8635 66.3643 30.1061 66.3643 36.4995C66.3628 42.8943 63.564 46.1362 58.0438 46.1362Z" fill="#333333"/>
</svg>
