<svg width="49" height="49" viewBox="0 0 49 49" fill="none" xmlns="http://www.w3.org/2000/svg">
<path d="M34.8346 25.5547L20.7026 34.976C20.6022 35.0428 20.4856 35.0811 20.3651 35.0869C20.2447 35.0927 20.1249 35.0656 20.0186 35.0087C19.9123 34.9518 19.8234 34.8671 19.7614 34.7637C19.6995 34.6602 19.6667 34.5419 19.6666 34.4213V15.5787C19.6667 15.4581 19.6995 15.3398 19.7614 15.2363C19.8234 15.1329 19.9123 15.0482 20.0186 14.9913C20.1249 14.9344 20.2447 14.9074 20.3651 14.9131C20.4856 14.9189 20.6022 14.9572 20.7026 15.024L34.8346 24.4453C34.9259 24.5062 35.0008 24.5887 35.0526 24.6855C35.1044 24.7822 35.1314 24.8903 35.1314 25C35.1314 25.1098 35.1044 25.2178 35.0526 25.3146C35.0008 25.4113 34.9259 25.4938 34.8346 25.5547Z" fill="white"/>
<circle cx="24.5" cy="24.5" r="24" stroke="white"/>
</svg>
